<?xml version="1.0" encoding="UTF-8" standalone="no"?>
<!DOCTYPE svg PUBLIC "-//W3C//DTD SVG 1.1//EN"
 "http://www.w3.org/Graphics/SVG/1.1/DTD/svg11.dtd">
<!-- Generated by graphviz version 14.1.5 (20260411.2331)
 -->
<!-- Title: cites Pages: 1 -->
<svg width="1009pt" height="1310pt"
 viewBox="0.00 0.00 1009.00 1310.00" xmlns="http://www.w3.org/2000/svg" xmlns:xlink="http://www.w3.org/1999/xlink">
<g id="graph0" class="graph" transform="scale(1 1) rotate(0) translate(4 1306.38)">
<title>cites</title>
<polygon fill="#0f1316" stroke="none" points="-4,4 -4,-1306.38 1005.49,-1306.38 1005.49,4 -4,4"/>
<!-- deepprove -->
<g id="node1" class="node">
<title>deepprove</title>
<ellipse fill="#5fb0b7" stroke="#28323a" cx="284.6" cy="-429.38" rx="54.27" ry="18"/>
<text xml:space="preserve" text-anchor="middle" x="284.6" y="-423.58" font-family="Helvetica,sans-Serif" font-size="14.00" fill="#0f1316">DeepProve</text>
</g>
<!-- zkpytorch -->
<g id="node3" class="node">
<title>zkpytorch</title>
<ellipse fill="#5fb0b7" stroke="#28323a" cx="454" cy="-454.38" rx="50.86" ry="18"/>
<text xml:space="preserve" text-anchor="middle" x="454" y="-448.58" font-family="Helvetica,sans-Serif" font-size="14.00" fill="#0f1316">zkPyTorch</text>
</g>
<!-- deepprove&#45;&gt;zkpytorch -->
<g id="edge25" class="edge">
<title>deepprove&#45;&gt;zkpytorch</title>
<path fill="none" stroke="#6f7d86" d="M334.47,-436.68C353.51,-439.53 375.48,-442.81 395.29,-445.76"/>
<polygon fill="#6f7d86" stroke="#6f7d86" points="394.76,-449.22 405.16,-447.24 395.79,-442.3 394.76,-449.22"/>
</g>
<!-- zkgpt -->
<g id="node4" class="node">
<title>zkgpt</title>
<ellipse fill="#5fb0b7" stroke="#28323a" cx="454" cy="-356.38" rx="37.7" ry="18"/>
<text xml:space="preserve" text-anchor="middle" x="454" y="-350.58" font-family="Helvetica,sans-Serif" font-size="14.00" fill="#0f1316">zkGPT</text>
</g>
<!-- deepprove&#45;&gt;zkgpt -->
<g id="edge23" class="edge">
<title>deepprove&#45;&gt;zkgpt</title>
<path fill="none" stroke="#6f7d86" d="M324.71,-416.97C337.17,-412.7 350.91,-407.66 363.25,-402.38 382.04,-394.34 402.37,-384.07 418.91,-375.27"/>
<polygon fill="#6f7d86" stroke="#6f7d86" points="420.2,-378.55 427.35,-370.73 416.88,-372.39 420.2,-378.55"/>
</g>
<!-- zkllm -->
<g id="node5" class="node">
<title>zkllm</title>
<ellipse fill="#5fb0b7" stroke="#28323a" cx="668.25" cy="-280.38" rx="36.72" ry="18"/>
<text xml:space="preserve" text-anchor="middle" x="668.25" y="-274.58" font-family="Helvetica,sans-Serif" font-size="14.00" fill="#0f1316">zkLLM</text>
</g>
<!-- deepprove&#45;&gt;zkllm -->
<g id="edge24" class="edge">
<title>deepprove&#45;&gt;zkllm</title>
<path fill="none" stroke="#6f7d86" d="M338.71,-430.96C387.58,-429.73 459.73,-420.85 508.76,-383.38 536.88,-361.91 517.22,-334.59 544.76,-312.38 565.96,-295.29 595.32,-287.25 619.99,-283.5"/>
<polygon fill="#6f7d86" stroke="#6f7d86" points="620.34,-286.99 629.8,-282.22 619.43,-280.04 620.34,-286.99"/>
</g>
<!-- jolt -->
<g id="node13" class="node">
<title>jolt</title>
<polygon fill="#6f7d86" stroke="#28323a" points="710.38,-688.38 626.13,-688.38 626.13,-652.38 710.38,-652.38 710.38,-688.38"/>
<text xml:space="preserve" text-anchor="middle" x="668.25" y="-664.58" font-family="Helvetica,sans-Serif" font-size="14.00" fill="#e9e4d9">Jolt (zkVM)</text>
</g>
<!-- deepprove&#45;&gt;jolt -->
<g id="edge19" class="edge">
<title>deepprove&#45;&gt;jolt</title>
<path fill="none" stroke="#6f7d86" d="M289.57,-447.73C299.66,-489.52 330.53,-591.8 399.25,-638.38 463.47,-681.93 556.74,-682.53 614.61,-677.52"/>
<polygon fill="#6f7d86" stroke="#6f7d86" points="614.92,-681.01 624.54,-676.57 614.25,-674.04 614.92,-681.01"/>
</g>
<!-- lasso -->
<g id="node14" class="node">
<title>lasso</title>
<polygon fill="#6f7d86" stroke="#28323a" points="695.25,-168.38 641.25,-168.38 641.25,-132.38 695.25,-132.38 695.25,-168.38"/>
<text xml:space="preserve" text-anchor="middle" x="668.25" y="-144.58" font-family="Helvetica,sans-Serif" font-size="14.00" fill="#e9e4d9">Lasso</text>
</g>
<!-- deepprove&#45;&gt;lasso -->
<g id="edge20" class="edge">
<title>deepprove&#45;&gt;lasso</title>
<path fill="none" stroke="#6f7d86" d="M331.49,-419.95C342.81,-415.96 354.26,-410.32 363.25,-402.38 390.36,-378.43 372.61,-353.87 399.25,-329.38 437.74,-293.99 472.92,-324.46 508.76,-286.38 544.31,-248.62 506.09,-209.94 544.76,-175.38 567.74,-154.85 602.91,-149.4 629.68,-148.63"/>
<polygon fill="#6f7d86" stroke="#6f7d86" points="629.45,-152.13 639.43,-148.56 629.41,-145.13 629.45,-152.13"/>
</g>
<!-- zkcnn -->
<g id="node16" class="node">
<title>zkcnn</title>
<polygon fill="#6f7d86" stroke="#28323a" points="892.49,-371.38 833.74,-371.38 833.74,-335.38 892.49,-335.38 892.49,-371.38"/>
<text xml:space="preserve" text-anchor="middle" x="863.11" y="-347.58" font-family="Helvetica,sans-Serif" font-size="14.00" fill="#e9e4d9">zkCNN</text>
</g>
<!-- deepprove&#45;&gt;zkcnn -->
<g id="edge22" class="edge">
<title>deepprove&#45;&gt;zkcnn</title>
<path fill="none" stroke="#6f7d86" d="M309.73,-445.6C387.13,-495.43 633.39,-636.6 791.74,-529.38 840.37,-496.46 855.4,-423.91 860.04,-382.98"/>
<polygon fill="#6f7d86" stroke="#6f7d86" points="863.51,-383.41 861.01,-373.12 856.55,-382.73 863.51,-383.41"/>
</g>
<!-- mystique -->
<g id="node21" class="node">
<title>mystique</title>
<polygon fill="#6f7d86" stroke="#28323a" points="898.49,-256.38 827.74,-256.38 827.74,-220.38 898.49,-220.38 898.49,-256.38"/>
<text xml:space="preserve" text-anchor="middle" x="863.11" y="-232.58" font-family="Helvetica,sans-Serif" font-size="14.00" fill="#e9e4d9">Mystique</text>
</g>
<!-- deepprove&#45;&gt;mystique -->
<g id="edge21" class="edge">
<title>deepprove&#45;&gt;mystique</title>
<path fill="none" stroke="#6f7d86" d="M332.77,-420.73C343.96,-416.73 355.01,-410.9 363.25,-402.38 400.77,-363.58 360.92,-324.4 399.25,-286.38 435.34,-250.59 473.22,-289.73 508.76,-253.38 550.67,-210.52 497.05,-159.68 544.76,-123.38 632.12,-56.93 695.98,-69.72 791.74,-123.38 824.22,-141.59 843.51,-181.58 853.46,-209.24"/>
<polygon fill="#6f7d86" stroke="#6f7d86" points="850.05,-210.1 856.57,-218.46 856.69,-207.86 850.05,-210.1"/>
</g>
<!-- gkr -->
<g id="node23" class="node">
<title>gkr</title>
<polygon fill="#6f7d86" stroke="#28323a" points="890.11,-604.38 836.11,-604.38 836.11,-568.38 890.11,-568.38 890.11,-604.38"/>
<text xml:space="preserve" text-anchor="middle" x="863.11" y="-580.58" font-family="Helvetica,sans-Serif" font-size="14.00" fill="#e9e4d9">GKR</text>
</g>
<!-- deepprove&#45;&gt;gkr -->
<g id="edge18" class="edge">
<title>deepprove&#45;&gt;gkr</title>
<path fill="none" stroke="#6f7d86" d="M288.41,-447.81C296.42,-493.72 323.93,-613.62 399.25,-671.38 537.97,-777.78 638.56,-781.64 791.74,-697.38 823.23,-680.06 842.61,-642.04 852.86,-615.35"/>
<polygon fill="#6f7d86" stroke="#6f7d86" points="856.09,-616.71 856.19,-606.11 849.51,-614.33 856.09,-616.71"/>
</g>
<!-- ezkl -->
<g id="node24" class="node">
<title>ezkl</title>
<polygon fill="#6f7d86" stroke="#28323a" points="481,-244.38 427,-244.38 427,-208.38 481,-208.38 481,-244.38"/>
<text xml:space="preserve" text-anchor="middle" x="454" y="-220.58" font-family="Helvetica,sans-Serif" font-size="14.00" fill="#e9e4d9">EZKL</text>
</g>
<!-- deepprove&#45;&gt;ezkl -->
<g id="edge17" class="edge">
<title>deepprove&#45;&gt;ezkl</title>
<path fill="none" stroke="#6f7d86" d="M333.1,-421.04C344.28,-417.04 355.25,-411.13 363.25,-402.38 407.76,-353.69 359.88,-311.32 399.25,-258.38 403.91,-252.12 410.19,-246.85 416.81,-242.51"/>
<polygon fill="#6f7d86" stroke="#6f7d86" points="418.42,-245.62 425.31,-237.57 414.9,-239.57 418.42,-245.62"/>
</g>
<!-- jolt&#45;atlas -->
<g id="node2" class="node">
<title>jolt&#45;atlas</title>
<ellipse fill="#5fb0b7" stroke="#28323a" cx="84.98" cy="-429.38" rx="45.98" ry="18"/>
<text xml:space="preserve" text-anchor="middle" x="84.98" y="-423.58" font-family="Helvetica,sans-Serif" font-size="14.00" fill="#0f1316">Jolt Atlas</text>
</g>
<!-- jolt&#45;atlas&#45;&gt;deepprove -->
<g id="edge29" class="edge">
<title>jolt&#45;atlas&#45;&gt;deepprove</title>
<path fill="none" stroke="#6f7d86" d="M131.32,-429.38C157.27,-429.38 190.27,-429.38 218.91,-429.38"/>
<polygon fill="#6f7d86" stroke="#6f7d86" points="218.55,-432.88 228.55,-429.38 218.55,-425.88 218.55,-432.88"/>
</g>
<!-- jolt&#45;atlas&#45;&gt;jolt -->
<g id="edge32" class="edge">
<title>jolt&#45;atlas&#45;&gt;jolt</title>
<path fill="none" stroke="#6f7d86" d="M100.33,-446.51C141.12,-493.68 263.63,-625.1 399.25,-671.38 470.78,-695.8 559.44,-688.82 614.69,-680.47"/>
<polygon fill="#6f7d86" stroke="#6f7d86" points="615.14,-683.94 624.46,-678.91 614.04,-677.03 615.14,-683.94"/>
</g>
<!-- twist&#45;shout -->
<g id="node15" class="node">
<title>twist&#45;shout</title>
<polygon fill="#6f7d86" stroke="#28323a" points="334.23,-393.38 234.98,-393.38 234.98,-357.38 334.23,-357.38 334.23,-393.38"/>
<text xml:space="preserve" text-anchor="middle" x="284.6" y="-369.58" font-family="Helvetica,sans-Serif" font-size="14.00" fill="#e9e4d9">Twist &amp; Shout</text>
</g>
<!-- jolt&#45;atlas&#45;&gt;twist&#45;shout -->
<g id="edge33" class="edge">
<title>jolt&#45;atlas&#45;&gt;twist&#45;shout</title>
<path fill="none" stroke="#6f7d86" d="M123.62,-419.1C151.89,-411.37 191.18,-400.64 223.75,-391.74"/>
<polygon fill="#6f7d86" stroke="#6f7d86" points="224.32,-395.21 233.05,-389.2 222.48,-388.46 224.32,-395.21"/>
</g>
<!-- jolt&#45;atlas&#45;&gt;gkr -->
<g id="edge31" class="edge">
<title>jolt&#45;atlas&#45;&gt;gkr</title>
<path fill="none" stroke="#6f7d86" d="M93.01,-447.58C108.16,-484.57 147.37,-569.15 205.96,-617.38 329.64,-719.19 386.52,-715.46 544.76,-740.38 653.19,-757.46 699.39,-799.72 791.74,-740.38 834.59,-712.86 851.67,-652.06 858.24,-615.63"/>
<polygon fill="#6f7d86" stroke="#6f7d86" points="861.62,-616.65 859.78,-606.22 854.71,-615.52 861.62,-616.65"/>
</g>
<!-- jolt&#45;atlas&#45;&gt;ezkl -->
<g id="edge30" class="edge">
<title>jolt&#45;atlas&#45;&gt;ezkl</title>
<path fill="none" stroke="#6f7d86" d="M107.52,-413.54C131.1,-396.51 170.32,-369.09 205.96,-348.38 278.44,-306.28 367.46,-264.65 416.4,-242.57"/>
<polygon fill="#6f7d86" stroke="#6f7d86" points="417.73,-245.82 425.42,-238.53 414.86,-239.43 417.73,-245.82"/>
</g>
<!-- zkpytorch&#45;&gt;zkllm -->
<g id="edge64" class="edge">
<title>zkpytorch&#45;&gt;zkllm</title>
<path fill="none" stroke="#6f7d86" d="M485.77,-439.91C494.17,-434.74 502.63,-428.21 508.76,-420.38 539.95,-380.55 507.82,-346.96 544.76,-312.38 564.94,-293.5 594.85,-285.45 620.06,-282.14"/>
<polygon fill="#6f7d86" stroke="#6f7d86" points="620.19,-285.65 629.75,-281.1 619.44,-278.69 620.19,-285.65"/>
</g>
<!-- zkpytorch&#45;&gt;zkcnn -->
<g id="edge63" class="edge">
<title>zkpytorch&#45;&gt;zkcnn</title>
<path fill="none" stroke="#6f7d86" d="M504.92,-452.67C572.19,-448.93 694.69,-437.07 791.74,-399.38 805.13,-394.18 818.63,-386.18 830.17,-378.3"/>
<polygon fill="#6f7d86" stroke="#6f7d86" points="832,-381.29 838.13,-372.65 827.95,-375.59 832,-381.29"/>
</g>
<!-- zkpytorch&#45;&gt;mystique -->
<g id="edge62" class="edge">
<title>zkpytorch&#45;&gt;mystique</title>
<path fill="none" stroke="#6f7d86" d="M483.43,-439.28C492.32,-433.59 501.66,-426.5 508.76,-418.38 532.6,-391.17 515.59,-366.77 544.76,-345.38 634.33,-279.72 692.43,-357.1 791.74,-307.38 811.38,-297.55 829.02,-280.23 841.72,-265.41"/>
<polygon fill="#6f7d86" stroke="#6f7d86" points="844.36,-267.7 848.01,-257.76 838.96,-263.26 844.36,-267.7"/>
</g>
<!-- expander -->
<g id="node22" class="node">
<title>expander</title>
<polygon fill="#6f7d86" stroke="#28323a" points="705.13,-520.38 631.38,-520.38 631.38,-484.38 705.13,-484.38 705.13,-520.38"/>
<text xml:space="preserve" text-anchor="middle" x="668.25" y="-496.58" font-family="Helvetica,sans-Serif" font-size="14.00" fill="#e9e4d9">Expander</text>
</g>
<!-- zkpytorch&#45;&gt;expander -->
<g id="edge60" class="edge">
<title>zkpytorch&#45;&gt;expander</title>
<path fill="none" stroke="#6f7d86" d="M497.7,-464.04C533.13,-472.05 583.47,-483.44 620.09,-491.72"/>
<polygon fill="#6f7d86" stroke="#6f7d86" points="618.98,-495.06 629.5,-493.85 620.52,-488.23 618.98,-495.06"/>
</g>
<!-- zkpytorch&#45;&gt;gkr -->
<g id="edge61" class="edge">
<title>zkpytorch&#45;&gt;gkr</title>
<path fill="none" stroke="#6f7d86" d="M470.37,-471.66C486.93,-489.13 514.95,-515.46 544.76,-529.38 638.67,-573.24 762.75,-583.47 824.23,-585.78"/>
<polygon fill="#6f7d86" stroke="#6f7d86" points="824.05,-589.28 834.15,-586.1 824.27,-582.28 824.05,-589.28"/>
</g>
<!-- zkgpt&#45;&gt;zkllm -->
<g id="edge49" class="edge">
<title>zkgpt&#45;&gt;zkllm</title>
<path fill="none" stroke="#6f7d86" d="M479.56,-342.68C497.28,-333.21 521.99,-320.84 544.76,-312.38 570.08,-302.98 599.32,-295.23 622.88,-289.71"/>
<polygon fill="#6f7d86" stroke="#6f7d86" points="623.5,-293.16 632.47,-287.52 621.94,-286.34 623.5,-293.16"/>
</g>
<!-- zkgpt&#45;&gt;jolt -->
<g id="edge45" class="edge">
<title>zkgpt&#45;&gt;jolt</title>
<path fill="none" stroke="#6f7d86" d="M470.08,-373.15C481.86,-386.93 497.99,-407.37 508.76,-427.38 531.54,-469.72 520.57,-487.84 544.76,-529.38 570.79,-574.08 611.93,-617.81 639.25,-644.44"/>
<polygon fill="#6f7d86" stroke="#6f7d86" points="636.53,-646.67 646.16,-651.08 641.38,-641.63 636.53,-646.67"/>
</g>
<!-- zkgpt&#45;&gt;lasso -->
<g id="edge46" class="edge">
<title>zkgpt&#45;&gt;lasso</title>
<path fill="none" stroke="#6f7d86" d="M483.6,-344.76C492.83,-339.74 502.33,-333 508.76,-324.38 547.7,-272.2 498.89,-228.59 544.76,-182.38 566.88,-160.1 602.46,-152.72 629.59,-150.55"/>
<polygon fill="#6f7d86" stroke="#6f7d86" points="629.71,-154.05 639.49,-149.99 629.31,-147.06 629.71,-154.05"/>
</g>
<!-- zkgpt&#45;&gt;zkcnn -->
<g id="edge48" class="edge">
<title>zkgpt&#45;&gt;zkcnn</title>
<path fill="none" stroke="#6f7d86" d="M482.3,-344.06C491.52,-338.94 501.35,-332.32 508.76,-324.38 532.92,-298.54 514.61,-271.9 544.76,-253.38 638.3,-195.94 694.31,-202.81 791.74,-253.38 820.5,-268.31 839.98,-300.98 851.02,-324.94"/>
<polygon fill="#6f7d86" stroke="#6f7d86" points="847.7,-326.08 854.9,-333.85 854.12,-323.28 847.7,-326.08"/>
</g>
<!-- zkgpt&#45;&gt;mystique -->
<g id="edge47" class="edge">
<title>zkgpt&#45;&gt;mystique</title>
<path fill="none" stroke="#6f7d86" d="M483.33,-344.55C492.53,-339.51 502.09,-332.81 508.76,-324.38 541.75,-282.73 501.91,-241.79 544.76,-210.38 625.48,-151.23 750.62,-189.68 817.07,-217.31"/>
<polygon fill="#6f7d86" stroke="#6f7d86" points="815.64,-220.51 826.21,-221.21 818.39,-214.07 815.64,-220.51"/>
</g>
<!-- zkgpt&#45;&gt;gkr -->
<g id="edge44" class="edge">
<title>zkgpt&#45;&gt;gkr</title>
<path fill="none" stroke="#6f7d86" d="M480.09,-369.64C497.85,-378.71 522.39,-390.64 544.76,-399.38 651.73,-441.2 700.46,-405.69 791.74,-475.38 819.7,-496.74 839.51,-532.63 850.84,-557.81"/>
<polygon fill="#6f7d86" stroke="#6f7d86" points="847.55,-559.01 854.72,-566.81 853.98,-556.24 847.55,-559.01"/>
</g>
<!-- zkllm&#45;&gt;zkcnn -->
<g id="edge52" class="edge">
<title>zkllm&#45;&gt;zkcnn</title>
<path fill="none" stroke="#6f7d86" d="M698.12,-291.31C731.31,-303.88 785.95,-324.56 822.95,-338.56"/>
<polygon fill="#6f7d86" stroke="#6f7d86" points="821.35,-341.7 831.94,-341.96 823.83,-335.15 821.35,-341.7"/>
</g>
<!-- zkllm&#45;&gt;mystique -->
<g id="edge51" class="edge">
<title>zkllm&#45;&gt;mystique</title>
<path fill="none" stroke="#6f7d86" d="M702.4,-273.16C733.89,-266.31 781.49,-255.94 816.54,-248.31"/>
<polygon fill="#6f7d86" stroke="#6f7d86" points="816.94,-251.8 825.96,-246.26 815.45,-244.97 816.94,-251.8"/>
</g>
<!-- zkllm&#45;&gt;gkr -->
<g id="edge50" class="edge">
<title>zkllm&#45;&gt;gkr</title>
<path fill="none" stroke="#6f7d86" d="M700.67,-289.34C728.5,-298.84 768.25,-316.55 791.74,-345.38 843.13,-408.47 856.99,-507.71 860.73,-556.82"/>
<polygon fill="#6f7d86" stroke="#6f7d86" points="857.23,-556.92 861.38,-566.66 864.22,-556.45 857.23,-556.92"/>
</g>
<!-- iron -->
<g id="node6" class="node">
<title>iron</title>
<ellipse fill="#c96a5e" stroke="#28323a" cx="863.11" cy="-1050.38" rx="27" ry="18"/>
<text xml:space="preserve" text-anchor="middle" x="863.11" y="-1044.58" font-family="Helvetica,sans-Serif" font-size="14.00" fill="#0f1316">Iron</text>
</g>
<!-- cheetah -->
<g id="node17" class="node">
<title>cheetah</title>
<polygon fill="#6f7d86" stroke="#28323a" points="1001.49,-1152.38 934.49,-1152.38 934.49,-1116.38 1001.49,-1116.38 1001.49,-1152.38"/>
<text xml:space="preserve" text-anchor="middle" x="967.99" y="-1128.58" font-family="Helvetica,sans-Serif" font-size="14.00" fill="#e9e4d9">Cheetah</text>
</g>
<!-- iron&#45;&gt;cheetah -->
<g id="edge26" class="edge">
<title>iron&#45;&gt;cheetah</title>
<path fill="none" stroke="#6f7d86" d="M881.1,-1064.26C896.01,-1076.43 918.07,-1094.44 936.09,-1109.16"/>
<polygon fill="#6f7d86" stroke="#6f7d86" points="933.44,-1111.51 943.4,-1115.12 937.87,-1106.09 933.44,-1111.51"/>
</g>
<!-- sirnn -->
<g id="node18" class="node">
<title>sirnn</title>
<polygon fill="#6f7d86" stroke="#28323a" points="996.99,-1026.38 938.99,-1026.38 938.99,-990.38 996.99,-990.38 996.99,-1026.38"/>
<text xml:space="preserve" text-anchor="middle" x="967.99" y="-1002.58" font-family="Helvetica,sans-Serif" font-size="14.00" fill="#e9e4d9">SIRNN</text>
</g>
<!-- iron&#45;&gt;sirnn -->
<g id="edge27" class="edge">
<title>iron&#45;&gt;sirnn</title>
<path fill="none" stroke="#6f7d86" d="M886.69,-1041.17C898.85,-1036.2 914.19,-1029.94 928.2,-1024.22"/>
<polygon fill="#6f7d86" stroke="#6f7d86" points="929.24,-1027.58 937.18,-1020.56 926.59,-1021.1 929.24,-1027.58"/>
</g>
<!-- the&#45;x -->
<g id="node20" class="node">
<title>the&#45;x</title>
<polygon fill="#6f7d86" stroke="#28323a" points="996.24,-908.38 939.74,-908.38 939.74,-872.38 996.24,-872.38 996.24,-908.38"/>
<text xml:space="preserve" text-anchor="middle" x="967.99" y="-884.58" font-family="Helvetica,sans-Serif" font-size="14.00" fill="#e9e4d9">THE&#45;X</text>
</g>
<!-- iron&#45;&gt;the&#45;x -->
<g id="edge28" class="edge">
<title>iron&#45;&gt;the&#45;x</title>
<path fill="none" stroke="#6f7d86" d="M874.74,-1033.86C892.32,-1006.51 927.67,-951.53 949.14,-918.14"/>
<polygon fill="#6f7d86" stroke="#6f7d86" points="952.04,-920.1 954.51,-909.8 946.16,-916.31 952.04,-920.1"/>
</g>
<!-- ciphergpt -->
<g id="node7" class="node">
<title>ciphergpt</title>
<ellipse fill="#c96a5e" stroke="#28323a" cx="454" cy="-1081.38" rx="54.76" ry="18"/>
<text xml:space="preserve" text-anchor="middle" x="454" y="-1075.58" font-family="Helvetica,sans-Serif" font-size="14.00" fill="#0f1316">CipherGPT</text>
</g>
<!-- ciphergpt&#45;&gt;iron -->
<g id="edge15" class="edge">
<title>ciphergpt&#45;&gt;iron</title>
<path fill="none" stroke="#6f7d86" d="M507.81,-1077.36C591.37,-1071 752.03,-1058.77 824.74,-1053.23"/>
<polygon fill="#6f7d86" stroke="#6f7d86" points="824.82,-1056.73 834.53,-1052.49 824.29,-1049.75 824.82,-1056.73"/>
</g>
<!-- bolt -->
<g id="node8" class="node">
<title>bolt</title>
<ellipse fill="#c96a5e" stroke="#28323a" cx="668.25" cy="-974.38" rx="33.8" ry="18"/>
<text xml:space="preserve" text-anchor="middle" x="668.25" y="-968.58" font-family="Helvetica,sans-Serif" font-size="14.00" fill="#0f1316">BOLT</text>
</g>
<!-- ciphergpt&#45;&gt;bolt -->
<g id="edge12" class="edge">
<title>ciphergpt&#45;&gt;bolt</title>
<path fill="none" stroke="#6f7d86" d="M484.96,-1066.28C523.96,-1046.62 591.97,-1012.34 632.98,-991.66"/>
<polygon fill="#6f7d86" stroke="#6f7d86" points="634.33,-994.9 641.68,-987.27 631.18,-988.65 634.33,-994.9"/>
</g>
<!-- ciphergpt&#45;&gt;cheetah -->
<g id="edge14" class="edge">
<title>ciphergpt&#45;&gt;cheetah</title>
<path fill="none" stroke="#6f7d86" d="M490.28,-1095.09C506.6,-1100.83 526.41,-1106.96 544.76,-1110.38 680.86,-1135.8 845.55,-1136.8 922.87,-1135.56"/>
<polygon fill="#6f7d86" stroke="#6f7d86" points="922.62,-1139.06 932.55,-1135.38 922.49,-1132.06 922.62,-1139.06"/>
</g>
<!-- ciphergpt&#45;&gt;sirnn -->
<g id="edge16" class="edge">
<title>ciphergpt&#45;&gt;sirnn</title>
<path fill="none" stroke="#6f7d86" d="M507.57,-1085.9C609.41,-1093.83 829.63,-1106.81 898.49,-1077.38 918.67,-1068.76 936.02,-1051.1 948.21,-1035.8"/>
<polygon fill="#6f7d86" stroke="#6f7d86" points="950.95,-1037.98 954.2,-1027.89 945.37,-1033.75 950.95,-1037.98"/>
</g>
<!-- bumblebee -->
<g id="node19" class="node">
<title>bumblebee</title>
<polygon fill="#6f7d86" stroke="#28323a" points="711.5,-1236.38 625,-1236.38 625,-1200.38 711.5,-1200.38 711.5,-1236.38"/>
<text xml:space="preserve" text-anchor="middle" x="668.25" y="-1212.58" font-family="Helvetica,sans-Serif" font-size="14.00" fill="#e9e4d9">BumbleBee</text>
</g>
<!-- ciphergpt&#45;&gt;bumblebee -->
<g id="edge13" class="edge">
<title>ciphergpt&#45;&gt;bumblebee</title>
<path fill="none" stroke="#6f7d86" d="M475.88,-1098.11C493.74,-1112.14 520.37,-1132.39 544.76,-1148.38 569.83,-1164.82 598.93,-1181.54 622.47,-1194.51"/>
<polygon fill="#6f7d86" stroke="#6f7d86" points="620.74,-1197.56 631.2,-1199.29 624.1,-1191.42 620.74,-1197.56"/>
</g>
<!-- bolt&#45;&gt;iron -->
<g id="edge2" class="edge">
<title>bolt&#45;&gt;iron</title>
<path fill="none" stroke="#6f7d86" d="M700.82,-979.89C726.09,-984.94 762.07,-993.59 791.74,-1006.38 806.67,-1012.82 822.11,-1022.13 834.71,-1030.53"/>
<polygon fill="#6f7d86" stroke="#6f7d86" points="832.67,-1033.38 842.9,-1036.15 836.63,-1027.6 832.67,-1033.38"/>
</g>
<!-- bolt&#45;&gt;cheetah -->
<g id="edge1" class="edge">
<title>bolt&#45;&gt;cheetah</title>
<path fill="none" stroke="#6f7d86" d="M702.43,-973.62C750.11,-974.13 838.79,-981.28 898.49,-1023.38 927.18,-1043.62 946.25,-1080.06 956.82,-1105.66"/>
<polygon fill="#6f7d86" stroke="#6f7d86" points="953.5,-1106.78 960.41,-1114.81 960.02,-1104.22 953.5,-1106.78"/>
</g>
<!-- bolt&#45;&gt;sirnn -->
<g id="edge3" class="edge">
<title>bolt&#45;&gt;sirnn</title>
<path fill="none" stroke="#6f7d86" d="M702.5,-974.76C747.31,-975.71 829.4,-979 898.49,-990.38 907.98,-991.95 918.06,-994.24 927.49,-996.66"/>
<polygon fill="#6f7d86" stroke="#6f7d86" points="926.56,-1000.03 937.12,-999.25 928.38,-993.27 926.56,-1000.03"/>
</g>
<!-- bolt&#45;&gt;the&#45;x -->
<g id="edge4" class="edge">
<title>bolt&#45;&gt;the&#45;x</title>
<path fill="none" stroke="#6f7d86" d="M698.61,-966.1C752.78,-950.82 868.38,-918.2 928.65,-901.2"/>
<polygon fill="#6f7d86" stroke="#6f7d86" points="929.45,-904.61 938.12,-898.53 927.55,-897.88 929.45,-904.61"/>
</g>
<!-- nimbus -->
<g id="node9" class="node">
<title>nimbus</title>
<ellipse fill="#c96a5e" stroke="#28323a" cx="284.6" cy="-1020.38" rx="40.62" ry="18"/>
<text xml:space="preserve" text-anchor="middle" x="284.6" y="-1014.58" font-family="Helvetica,sans-Serif" font-size="14.00" fill="#0f1316">Nimbus</text>
</g>
<!-- nimbus&#45;&gt;iron -->
<g id="edge41" class="edge">
<title>nimbus&#45;&gt;iron</title>
<path fill="none" stroke="#6f7d86" d="M325.23,-1022.45C431.31,-1027.97 720.72,-1043.03 824.47,-1048.43"/>
<polygon fill="#6f7d86" stroke="#6f7d86" points="824.22,-1051.92 834.39,-1048.94 824.58,-1044.93 824.22,-1051.92"/>
</g>
<!-- nimbus&#45;&gt;ciphergpt -->
<g id="edge40" class="edge">
<title>nimbus&#45;&gt;ciphergpt</title>
<path fill="none" stroke="#6f7d86" d="M316.7,-1031.72C341.68,-1040.82 377.18,-1053.76 405.69,-1064.14"/>
<polygon fill="#6f7d86" stroke="#6f7d86" points="404.22,-1067.33 414.82,-1067.47 406.62,-1060.76 404.22,-1067.33"/>
</g>
<!-- nimbus&#45;&gt;bolt -->
<g id="edge37" class="edge">
<title>nimbus&#45;&gt;bolt</title>
<path fill="none" stroke="#6f7d86" d="M324.26,-1015.59C346.24,-1012.87 374.28,-1009.41 399.25,-1006.38 478.39,-996.78 570.71,-985.81 623.73,-979.53"/>
<polygon fill="#6f7d86" stroke="#6f7d86" points="624.05,-983.02 633.56,-978.37 623.22,-976.07 624.05,-983.02"/>
</g>
<!-- nimbus&#45;&gt;cheetah -->
<g id="edge39" class="edge">
<title>nimbus&#45;&gt;cheetah</title>
<path fill="none" stroke="#6f7d86" d="M301.65,-1036.88C322.28,-1057.06 360.14,-1090.71 399.25,-1108.38 573.58,-1187.18 636.48,-1144.99 827.74,-1149.38 859.18,-1150.11 867.23,-1152.77 898.49,-1149.38 906.47,-1148.52 914.88,-1147.11 922.98,-1145.48"/>
<polygon fill="#6f7d86" stroke="#6f7d86" points="923.61,-1148.93 932.65,-1143.4 922.13,-1142.09 923.61,-1148.93"/>
</g>
<!-- nimbus&#45;&gt;sirnn -->
<g id="edge42" class="edge">
<title>nimbus&#45;&gt;sirnn</title>
<path fill="none" stroke="#6f7d86" d="M316.13,-1008.82C364,-991.36 460.03,-959.09 544.76,-947.38 653.5,-932.36 683,-932.4 791.74,-947.38 840.56,-954.11 852.19,-960.51 898.49,-977.38 908.4,-981 918.87,-985.41 928.57,-989.77"/>
<polygon fill="#6f7d86" stroke="#6f7d86" points="926.8,-992.81 937.35,-993.8 929.72,-986.45 926.8,-992.81"/>
</g>
<!-- nimbus&#45;&gt;bumblebee -->
<g id="edge38" class="edge">
<title>nimbus&#45;&gt;bumblebee</title>
<path fill="none" stroke="#6f7d86" d="M294.34,-1038.34C310.46,-1069.41 347.95,-1132.88 399.25,-1164.38 465.27,-1204.94 556.08,-1215.73 613.21,-1218.22"/>
<polygon fill="#6f7d86" stroke="#6f7d86" points="612.88,-1221.71 623,-1218.58 613.14,-1214.72 612.88,-1221.71"/>
</g>
<!-- nimbus&#45;&gt;the&#45;x -->
<g id="edge43" class="edge">
<title>nimbus&#45;&gt;the&#45;x</title>
<path fill="none" stroke="#6f7d86" d="M305.14,-1004.36C326.73,-987.6 363.24,-962.01 399.25,-949.38 588.72,-882.92 833.92,-884.71 927.94,-888.34"/>
<polygon fill="#6f7d86" stroke="#6f7d86" points="927.77,-891.84 937.9,-888.76 928.06,-884.84 927.77,-891.84"/>
</g>
<!-- bootstrapping&#45;fhe -->
<g id="node10" class="node">
<title>bootstrapping&#45;fhe</title>
<ellipse fill="#c96a5e" stroke="#28323a" cx="84.98" cy="-1081.38" rx="84.98" ry="18"/>
<text xml:space="preserve" text-anchor="middle" x="84.98" y="-1075.58" font-family="Helvetica,sans-Serif" font-size="14.00" fill="#0f1316">Bootstrapping&#45;FHE</text>
</g>
<!-- bootstrapping&#45;fhe&#45;&gt;iron -->
<g id="edge9" class="edge">
<title>bootstrapping&#45;fhe&#45;&gt;iron</title>
<path fill="none" stroke="#6f7d86" d="M102.89,-1099.2C124.64,-1121.04 164.58,-1157.56 205.96,-1177.38 324.14,-1234.02 684.49,-1320.7 791.74,-1245.38 845.45,-1207.67 858.35,-1124.74 861.33,-1080.15"/>
<polygon fill="#6f7d86" stroke="#6f7d86" points="864.82,-1080.34 861.85,-1070.17 857.83,-1079.97 864.82,-1080.34"/>
</g>
<!-- bootstrapping&#45;fhe&#45;&gt;ciphergpt -->
<g id="edge8" class="edge">
<title>bootstrapping&#45;fhe&#45;&gt;ciphergpt</title>
<path fill="none" stroke="#6f7d86" d="M170.18,-1081.38C236.19,-1081.38 326.73,-1081.38 387.42,-1081.38"/>
<polygon fill="#6f7d86" stroke="#6f7d86" points="387.25,-1084.88 397.25,-1081.38 387.25,-1077.88 387.25,-1084.88"/>
</g>
<!-- bootstrapping&#45;fhe&#45;&gt;bolt -->
<g id="edge5" class="edge">
<title>bootstrapping&#45;fhe&#45;&gt;bolt</title>
<path fill="none" stroke="#6f7d86" d="M103.09,-1063.55C124.74,-1042.35 164.27,-1007.99 205.96,-993.38 352.11,-942.18 540.4,-957.44 623.98,-968.01"/>
<polygon fill="#6f7d86" stroke="#6f7d86" points="623.43,-971.47 633.8,-969.3 624.34,-964.53 623.43,-971.47"/>
</g>
<!-- bootstrapping&#45;fhe&#45;&gt;nimbus -->
<g id="edge10" class="edge">
<title>bootstrapping&#45;fhe&#45;&gt;nimbus</title>
<path fill="none" stroke="#6f7d86" d="M134.58,-1066.38C166.64,-1056.49 208.31,-1043.63 239.43,-1034.02"/>
<polygon fill="#6f7d86" stroke="#6f7d86" points="240.41,-1037.38 248.94,-1031.09 238.35,-1030.69 240.41,-1037.38"/>
</g>
<!-- bootstrapping&#45;fhe&#45;&gt;cheetah -->
<g id="edge7" class="edge">
<title>bootstrapping&#45;fhe&#45;&gt;cheetah</title>
<path fill="none" stroke="#6f7d86" d="M97.38,-1099.49C116.45,-1128.39 157.55,-1184.99 205.96,-1217.38 302.47,-1281.95 336.89,-1302.38 453,-1302.38 453,-1302.38 453,-1302.38 669.25,-1302.38 725.09,-1302.38 741.44,-1298.64 791.74,-1274.38 851.95,-1245.34 910.21,-1192.3 942.06,-1160.5"/>
<polygon fill="#6f7d86" stroke="#6f7d86" points="944.35,-1163.17 948.89,-1153.6 939.37,-1158.25 944.35,-1163.17"/>
</g>
<!-- bootstrapping&#45;fhe&#45;&gt;bumblebee -->
<g id="edge6" class="edge">
<title>bootstrapping&#45;fhe&#45;&gt;bumblebee</title>
<path fill="none" stroke="#6f7d86" d="M120.69,-1098.08C177.46,-1124.52 294.34,-1175.37 399.25,-1198.38 472.27,-1214.41 558.89,-1218.21 613.46,-1218.81"/>
<polygon fill="#6f7d86" stroke="#6f7d86" points="613.4,-1222.31 623.43,-1218.88 613.45,-1215.31 613.4,-1222.31"/>
</g>
<!-- bootstrapping&#45;fhe&#45;&gt;the&#45;x -->
<g id="edge11" class="edge">
<title>bootstrapping&#45;fhe&#45;&gt;the&#45;x</title>
<path fill="none" stroke="#6f7d86" d="M97.88,-1063.45C139.19,-1003.59 283.2,-814.38 453,-814.38 453,-814.38 453,-814.38 669.25,-814.38 765.03,-814.38 872.9,-851.76 928.8,-874.09"/>
<polygon fill="#6f7d86" stroke="#6f7d86" points="927.28,-877.25 937.87,-877.77 929.92,-870.77 927.28,-877.25"/>
</g>
<!-- zkml&#45;survey -->
<g id="node11" class="node">
<title>zkml&#45;survey</title>
<ellipse fill="#a8c256" stroke="#28323a" cx="284.6" cy="-180.38" rx="78.64" ry="18"/>
<text xml:space="preserve" text-anchor="middle" x="284.6" y="-174.58" font-family="Helvetica,sans-Serif" font-size="14.00" fill="#0f1316">ZKP&#45;VML Survey</text>
</g>
<!-- zkml&#45;survey&#45;&gt;zkgpt -->
<g id="edge58" class="edge">
<title>zkml&#45;survey&#45;&gt;zkgpt</title>
<path fill="none" stroke="#6f7d86" d="M302.58,-198.23C332.66,-229.86 395.4,-295.82 429.58,-331.75"/>
<polygon fill="#6f7d86" stroke="#6f7d86" points="426.74,-333.85 436.17,-338.69 431.82,-329.03 426.74,-333.85"/>
</g>
<!-- zkml&#45;survey&#45;&gt;zkllm -->
<g id="edge59" class="edge">
<title>zkml&#45;survey&#45;&gt;zkllm</title>
<path fill="none" stroke="#6f7d86" d="M363.62,-179.69C407.08,-181.11 461.75,-185.93 508.76,-199.38 555.81,-212.85 605.3,-240.65 636.2,-259.9"/>
<polygon fill="#6f7d86" stroke="#6f7d86" points="633.96,-262.62 644.28,-265.01 637.7,-256.7 633.96,-262.62"/>
</g>
<!-- zkml&#45;survey&#45;&gt;lasso -->
<g id="edge55" class="edge">
<title>zkml&#45;survey&#45;&gt;lasso</title>
<path fill="none" stroke="#6f7d86" d="M353.43,-171.32C368.5,-169.5 384.4,-167.74 399.25,-166.38 481.28,-158.89 577.78,-154.12 629.67,-151.88"/>
<polygon fill="#6f7d86" stroke="#6f7d86" points="629.6,-155.39 639.45,-151.47 629.31,-148.39 629.6,-155.39"/>
</g>
<!-- zkml&#45;survey&#45;&gt;zkcnn -->
<g id="edge57" class="edge">
<title>zkml&#45;survey&#45;&gt;zkcnn</title>
<path fill="none" stroke="#6f7d86" d="M316.38,-163.53C402,-119.18 646.23,-10.16 791.74,-123.38 843.12,-163.37 807.86,-203.39 827.74,-265.38 834.19,-285.5 842.85,-307.65 849.86,-324.69"/>
<polygon fill="#6f7d86" stroke="#6f7d86" points="846.54,-325.8 853.61,-333.69 853,-323.11 846.54,-325.8"/>
</g>
<!-- zkml&#45;survey&#45;&gt;mystique -->
<g id="edge56" class="edge">
<title>zkml&#45;survey&#45;&gt;mystique</title>
<path fill="none" stroke="#6f7d86" d="M303.24,-162.48C324.29,-142.12 361.41,-109.25 399.25,-90.38 556.08,-12.17 647.54,47.23 791.74,-52.38 843.04,-87.82 856.98,-165.83 860.75,-208.71"/>
<polygon fill="#6f7d86" stroke="#6f7d86" points="857.25,-208.82 861.47,-218.54 864.23,-208.31 857.25,-208.82"/>
</g>
<!-- zkml&#45;survey&#45;&gt;gkr -->
<g id="edge54" class="edge">
<title>zkml&#45;survey&#45;&gt;gkr</title>
<path fill="none" stroke="#6f7d86" d="M295.26,-198.6C311.09,-228.98 342.83,-292.22 363.25,-348.38 384.17,-405.94 362.52,-432.38 399.25,-481.38 499.84,-615.62 733.15,-602.76 824.49,-591.87"/>
<polygon fill="#6f7d86" stroke="#6f7d86" points="824.67,-595.37 834.16,-590.65 823.8,-588.43 824.67,-595.37"/>
</g>
<!-- zkml&#45;survey&#45;&gt;ezkl -->
<g id="edge53" class="edge">
<title>zkml&#45;survey&#45;&gt;ezkl</title>
<path fill="none" stroke="#6f7d86" d="M336.28,-194.31C361.92,-201.36 392.48,-209.75 415.9,-216.19"/>
<polygon fill="#6f7d86" stroke="#6f7d86" points="414.74,-219.5 425.31,-218.77 416.59,-212.75 414.74,-219.5"/>
</g>
<!-- modulus&#45;cost&#45;of&#45;intelligence -->
<g id="node12" class="node">
<title>modulus&#45;cost&#45;of&#45;intelligence</title>
<ellipse fill="#9b8bc4" stroke="#28323a" cx="668.25" cy="-372.38" rx="123.49" ry="18"/>
<text xml:space="preserve" text-anchor="middle" x="668.25" y="-366.58" font-family="Helvetica,sans-Serif" font-size="14.00" fill="#0f1316">Modulus: Cost of Intelligence</text>
</g>
<!-- modulus&#45;cost&#45;of&#45;intelligence&#45;&gt;zkcnn -->
<g id="edge36" class="edge">
<title>modulus&#45;cost&#45;of&#45;intelligence&#45;&gt;zkcnn</title>
<path fill="none" stroke="#6f7d86" d="M771.89,-362.27C789.78,-360.51 807.38,-358.78 822.22,-357.31"/>
<polygon fill="#6f7d86" stroke="#6f7d86" points="822.37,-360.82 831.98,-356.35 821.68,-353.85 822.37,-360.82"/>
</g>
<!-- modulus&#45;cost&#45;of&#45;intelligence&#45;&gt;mystique -->
<g id="edge35" class="edge">
<title>modulus&#45;cost&#45;of&#45;intelligence&#45;&gt;mystique</title>
<path fill="none" stroke="#6f7d86" d="M753.16,-359.01C766.8,-354.49 780.22,-348.46 791.74,-340.38 818.05,-321.95 837.62,-290.31 849.35,-267.14"/>
<polygon fill="#6f7d86" stroke="#6f7d86" points="852.46,-268.75 853.67,-258.22 846.16,-265.7 852.46,-268.75"/>
</g>
<!-- modulus&#45;cost&#45;of&#45;intelligence&#45;&gt;gkr -->
<g id="edge34" class="edge">
<title>modulus&#45;cost&#45;of&#45;intelligence&#45;&gt;gkr</title>
<path fill="none" stroke="#6f7d86" d="M758.66,-384.97C770.74,-389.61 782.23,-395.9 791.74,-404.38 836.61,-444.44 853.09,-516.48 858.98,-556.87"/>
<polygon fill="#6f7d86" stroke="#6f7d86" points="855.48,-557.13 860.26,-566.58 862.42,-556.21 855.48,-557.13"/>
</g>
</g>
</svg>
